#N canvas 803 386 523 398 10;
#X declare -path lib;
#X obj 24 163 meter;
#X floatatom 24 221 5 0 0 0 - - -, f 5;
#X floatatom 87 202 5 0 0 0 - - -, f 5;
#X obj 24 243 /;
#X obj 87 243 - 1;
#X obj 87 223 t f f;
#X floatatom 24 266 0 0 0 0 - - -;
#X obj 24 291 hsl 80 15 0 1 0 0 empty empty empty -2 -8 0 10 #fcfcfc
#000000 #000000 0 1;
#X floatatom 24 140 0 0 0 2 beat - -;
#X obj 382 72 hsl 64 15 0 240 0 1 bpm empty empty -2 -8 0 10 #fcfcfc
#000000 #000000 3150 1;
#X obj 445 263 nbx 5 14 0 120 0 1 empty empty base\ vel 0 -8 0 10 #fcfcfc
#000000 #000000 60 256 0;
#X text 90 186 total #pulses;
#X obj 24 70 timebase;
#X msg 382 49 60;
#X msg 413 49 120;
#X msg 444 49 240;
#X msg 64 16 4 4;
#X msg 96 16 4 4 2;
#X msg 140 16 4 4 3;
#X msg 190 16 3 4;
#X msg 222 16 6 8;
#X msg 254 16 9 8;
#X msg 286 16 12 16;
#X msg 373 16 5 8;
#X msg 405 16 7 8;
#X msg 437 16 11 8;
#X obj 24 47 t a;
#X msg 341 16 3 8;
#X msg 24 16 4 3;
#X text 456 71 bpm;
#X obj 112 47 r bpm;
#X obj 170 285 sampler;
#X floatatom 112 162 5 0 0 0 - - -, f 5;
#X obj 90 140 bng 15 250 50 0 empty reset reset -8 -9 0 10 #fcfcfc
#000000 #000000;
#X obj 288 263 r pulse-weight;
#X obj 24 360 s pulse-weight;
#X obj 200 140 s pulse-dur;
#X obj 200 194 hsl 80 15 0 1 0 0 empty range-from empty -2 -8 0 10
#3cc840 #000000 #000000 0 1;
#X text 205 230 pulse filter;
#X text 12 251 normalize;
#X obj 116 360 bng 15 100 50 0 empty empty empty 17 7 0 10 #f4f804
#000000 #000000;
#X text 13 186 raw pulse strength, f 9;
#X obj 200 215 hsl 80 15 0 1 0 0 empty range-to empty -2 -8 0 10 #fc3850
#000000 #000000 7900 1;
#X obj 114 243 s npulses;
#X obj 200 170 tgl 15 1 quantize quantize-r quantize 17 7 0 10 #fcfcfc
#000000 #000000 0 1;
#X obj 200 47 r play;
#X obj 288 285 gmkit;
#N canvas 746 483 450 325 pattern 0;
#X msg 251 133 40;
#X msg 251 110 44;
#X msg 251 156 36;
#X text 280 156 kick;
#X text 280 133 snare;
#X text 280 110 hihat;
#N canvas 927 421 450 392 preset 0;
#X obj 30 50 r num-store;
#X obj 30 75 nbx 5 14 -1e+37 1e+37 0 1 empty empty empty 0 -8 0 10
#fcfcfc #000000 #000000 4 256 0;
#X obj 30 125 nbx 5 14 -1e+37 1e+37 0 1 empty empty empty 0 -8 0 10
#fcfcfc #000000 #000000 4 256 0;
#X obj 30 100 r unit-store;
#X obj 30 175 nbx 5 14 -1e+37 1e+37 0 1 empty empty empty 0 -8 0 10
#fcfcfc #000000 #000000 2 256 0;
#X obj 30 225 nbx 5 14 -1e+37 1e+37 0 1 empty empty empty 0 -8 0 10
#fcfcfc #000000 #000000 120 256 0;
#X obj 30 275 nbx 5 14 -1e+37 1e+37 0 1 empty empty empty 0 -8 0 10
#fcfcfc #000000 #000000 11 256 0;
#X obj 30 150 r div-store;
#X obj 30 200 r bpm-store;
#X obj 30 250 r ch-store;
#X obj 120 75 value num-recall;
#X obj 120 125 value unit-recall;
#X obj 120 175 value div-recall;
#X obj 120 225 value bpm-recall;
#X obj 120 275 value ch-recall;
#X obj 250 25 loadbang;
#X obj 250 50 t b b b b b;
#X obj 250 75 value num-recall;
#X obj 250 105 value unit-recall;
#X obj 250 135 value div-recall;
#X obj 250 165 value bpm-recall;
#X obj 250 195 value ch-recall;
#X obj 250 225 pack f f f f f;
#X obj 250 335 s init-recall;
#X obj 250 255 t b a;
#X obj 250 305 list store;
#X obj 250 280 del 100;
#X connect 0 0 1 0;
#X connect 1 0 10 0;
#X connect 2 0 11 0;
#X connect 3 0 2 0;
#X connect 4 0 12 0;
#X connect 5 0 13 0;
#X connect 6 0 14 0;
#X connect 7 0 4 0;
#X connect 8 0 5 0;
#X connect 9 0 6 0;
#X connect 15 0 16 0;
#X connect 16 0 17 0;
#X connect 16 1 18 0;
#X connect 16 2 19 0;
#X connect 16 3 20 0;
#X connect 16 4 21 0;
#X connect 17 0 22 0;
#X connect 18 0 22 1;
#X connect 19 0 22 2;
#X connect 20 0 22 3;
#X connect 21 0 22 4;
#X connect 22 0 24 0;
#X connect 24 0 26 0;
#X connect 24 1 25 1;
#X connect 25 0 23 0;
#X connect 26 0 25 0;
#X restore 20 260 pd preset;
#X text 20 200 The note data along with other preset data (time \,
bpm \, midi channel is kept in this subpatch so that it gets stored
together with the main patch \, as a simple means to manage different
presets.;
#N canvas 1920 390 450 300 (subpatch) 0;
#X array pattern 16 float 23 black black;
#A 0 69 69 27.0329 64 76 71 64 26.5757 72 45.904 76 24.8753 27.6182
69 38.5896 38.4211 ;
#X coords 0 64 16 0 200 140 1;
#X restore 20 40 graph;
#X restore 170 360 pd pattern;
#X obj 24 314 t f f;
#X obj 270 100 tgl 15 0 empty empty empty 17 7 0 10 #fcfcfc #000000
#000000 0 1;
#X text 240 60 MIDI clock support - experimental, f 20;
#X obj 270 120 mclk;
#X obj 340 100 declare -path lib;
#X obj 340 120 control-combo;
#X obj 24 334 pulse-filter;
#X obj 270 170 tgl 15 1 layer layer-r layer 17 7 0 10 #fcfcfc #000000
#000000 0 1;
#X text 340 150 K3 - low pulse strength \; K4 - high pulse strength
\; bend up - duplet \; bend dn - triplet, f 26;
#X connect 0 0 1 0;
#X connect 0 1 2 0;
#X connect 1 0 3 0;
#X connect 2 0 5 0;
#X connect 3 0 6 0;
#X connect 4 0 3 1;
#X connect 5 0 4 0;
#X connect 5 1 43 0;
#X connect 6 0 7 0;
#X connect 7 0 48 0;
#X connect 8 0 0 0;
#X connect 10 0 46 1;
#X connect 12 0 8 0;
#X connect 12 1 32 0;
#X connect 12 2 36 0;
#X connect 13 0 9 0;
#X connect 14 0 9 0;
#X connect 15 0 9 0;
#X connect 16 0 26 0;
#X connect 17 0 26 0;
#X connect 18 0 26 0;
#X connect 19 0 26 0;
#X connect 20 0 26 0;
#X connect 21 0 26 0;
#X connect 22 0 26 0;
#X connect 23 0 26 0;
#X connect 24 0 26 0;
#X connect 25 0 26 0;
#X connect 26 0 12 0;
#X connect 27 0 26 0;
#X connect 28 0 26 0;
#X connect 30 0 12 1;
#X connect 32 0 0 1;
#X connect 33 0 32 0;
#X connect 34 0 46 0;
#X connect 37 0 54 1;
#X connect 42 0 54 2;
#X connect 45 0 12 2;
#X connect 48 0 54 0;
#X connect 48 1 31 0;
#X connect 49 0 51 0;
#X connect 54 0 35 0;
#X connect 54 0 40 0;
