#N canvas 1037 392 397 367 10;
#X obj 20 30 ctlin 3;
#X obj 20 51 / 127;
#X obj 100 51 / 127;
#X obj 100 30 ctlin 4;
#X obj 20 143 s range-from;
#N canvas 920 549 450 382.062 quantize 0;
#X floatatom 200 130 5 0 0 0 - - -, f 5;
#X obj 200 20 r npulses;
#X obj 200 105 - 1;
#X obj 200 154 t f f;
#X obj 90 150 * 16;
#X obj 90 175 int;
#X obj 90 200 / 16;
#X obj 20 20 inlet;
#X obj 90 225 outlet;
#X obj 20 120 spigot 1;
#X obj 90 120 spigot;
#X obj 20 75 t f f;
#X obj 100 20 r quantize;
#X obj 100 45 t f f;
#X obj 100 70 == 0;
#X obj 100 95 tgl 15 0 empty empty empty 17 7 0 10 #fcfcfc #000000
#000000 0 1;
#X obj 140 95 tgl 15 0 empty empty empty 17 7 0 10 #fcfcfc #000000
#000000 0 1;
#X obj 20 45 f;
#X obj 200 45 change;
#X obj 200 70 t b f;
#X connect 0 0 3 0;
#X connect 1 0 18 0;
#X connect 2 0 0 0;
#X connect 3 0 4 1;
#X connect 3 1 6 1;
#X connect 4 0 5 0;
#X connect 5 0 6 0;
#X connect 6 0 8 0;
#X connect 7 0 17 0;
#X connect 9 0 8 0;
#X connect 10 0 4 0;
#X connect 11 0 9 0;
#X connect 11 1 10 0;
#X connect 12 0 13 0;
#X connect 13 0 14 0;
#X connect 13 1 16 0;
#X connect 14 0 15 0;
#X connect 15 0 9 1;
#X connect 16 0 10 1;
#X connect 17 0 11 0;
#X connect 18 0 19 0;
#X connect 19 0 17 0;
#X connect 19 1 2 0;
#X restore 20 122 pd quantize;
#N canvas 920 550 450 382.062 quantize 0;
#X floatatom 200 130 5 0 0 0 - - -, f 5;
#X obj 200 20 r npulses;
#X obj 200 105 - 1;
#X obj 200 154 t f f;
#X obj 90 150 * 16;
#X obj 90 175 int;
#X obj 90 200 / 16;
#X obj 20 20 inlet;
#X obj 90 225 outlet;
#X obj 20 120 spigot 1;
#X obj 90 120 spigot;
#X obj 20 75 t f f;
#X obj 100 20 r quantize;
#X obj 100 45 t f f;
#X obj 100 70 == 0;
#X obj 100 95 tgl 15 0 empty empty empty 17 7 0 10 #fcfcfc #000000
#000000 0 1;
#X obj 140 95 tgl 15 0 empty empty empty 17 7 0 10 #fcfcfc #000000
#000000 0 1;
#X obj 20 45 f;
#X obj 200 45 change;
#X obj 200 70 t b f;
#X connect 0 0 3 0;
#X connect 1 0 18 0;
#X connect 2 0 0 0;
#X connect 3 0 4 1;
#X connect 3 1 6 1;
#X connect 4 0 5 0;
#X connect 5 0 6 0;
#X connect 6 0 8 0;
#X connect 7 0 17 0;
#X connect 9 0 8 0;
#X connect 10 0 4 0;
#X connect 11 0 9 0;
#X connect 11 1 10 0;
#X connect 12 0 13 0;
#X connect 13 0 14 0;
#X connect 13 1 16 0;
#X connect 14 0 15 0;
#X connect 15 0 9 1;
#X connect 16 0 10 1;
#X connect 17 0 11 0;
#X connect 18 0 19 0;
#X connect 19 0 17 0;
#X connect 19 1 2 0;
#X restore 141 122 pd quantize;
#X obj 141 143 s range-to;
#X obj 169 30 loadbang;
#X msg 169 55 1;
#X obj 260 80 moses 0;
#X obj 299 105 moses 1;
#X obj 260 105 bng 15 250 50 0 empty empty empty 17 7 0 10 #fcfcfc
#000000 #000000;
#X obj 299 130 bng 15 250 50 0 empty empty empty 17 7 0 10 #fcfcfc
#000000 #000000;
#X obj 338 130 bng 15 250 50 0 empty empty empty 17 7 0 10 #fcfcfc
#000000 #000000;
#X msg 338 153 2;
#X msg 299 153 1;
#X msg 260 153 3;
#X obj 260 178 change;
#X floatatom 260 203 5 0 0 0 - - -, f 5;
#X obj 260 227 t b f;
#X obj 260 252 s reset;
#X obj 310 252 s div;
#X obj 260 30 bendin 0 1;
#X obj 260 55 - 8192;
#X text 20 10 K1 = CC3 \, K2 = CC4;
#X obj 20 170 keyname;
#X obj 20 195 pack f s;
#X obj 20 220 route 1;
#X obj 20 270 sel F1 F2;
#X obj 20 330 s play;
#X obj 70 330 s rec;
#X text 100 180 keyboard controls: F1 - play \; F2 - rec, f 18;
#X obj 20 245 symbol;
#X msg 20 295 int bang;
#X connect 0 0 1 0;
#X connect 1 0 5 0;
#X connect 2 0 6 0;
#X connect 3 0 2 0;
#X connect 5 0 4 0;
#X connect 6 0 7 0;
#X connect 8 0 9 0;
#X connect 9 0 6 0;
#X connect 10 0 12 0;
#X connect 10 1 11 0;
#X connect 11 0 13 0;
#X connect 11 1 14 0;
#X connect 12 0 17 0;
#X connect 13 0 16 0;
#X connect 14 0 15 0;
#X connect 15 0 18 0;
#X connect 16 0 18 0;
#X connect 17 0 18 0;
#X connect 18 0 19 0;
#X connect 19 0 20 0;
#X connect 20 0 21 0;
#X connect 20 1 22 0;
#X connect 23 0 24 0;
#X connect 24 0 10 0;
#X connect 26 0 27 0;
#X connect 26 1 27 1;
#X connect 27 0 28 0;
#X connect 28 0 33 0;
#X connect 29 0 34 0;
#X connect 29 1 31 0;
#X connect 33 0 29 0;
#X connect 34 0 30 0;
