#N canvas 1063 341 376 321 10;
#X obj 30 71 / 127;
#X obj 100 71 / 127;
#X obj 30 163 s range-from;
#N canvas 920 549 450 382.062 quantize 0;
#X floatatom 200 130 5 0 0 0 - - -, f 5;
#X obj 200 20 r npulses;
#X obj 200 105 - 1;
#X obj 200 154 t f f;
#X obj 90 150 * 16;
#X obj 90 175 int;
#X obj 90 200 / 16;
#X obj 20 20 inlet;
#X obj 90 225 outlet;
#X obj 20 120 spigot 1;
#X obj 90 120 spigot;
#X obj 20 75 t f f;
#X obj 100 20 r quantize;
#X obj 100 45 t f f;
#X obj 100 70 == 0;
#X obj 100 95 tgl 15 0 empty empty empty 17 7 0 10 #fcfcfc #000000
#000000 0 1;
#X obj 140 95 tgl 15 0 empty empty empty 17 7 0 10 #fcfcfc #000000
#000000 0 1;
#X obj 20 45 f;
#X obj 200 45 change;
#X obj 200 70 t b f;
#X connect 0 0 3 0;
#X connect 1 0 18 0;
#X connect 2 0 0 0;
#X connect 3 0 4 1;
#X connect 3 1 6 1;
#X connect 4 0 5 0;
#X connect 5 0 6 0;
#X connect 6 0 8 0;
#X connect 7 0 17 0;
#X connect 9 0 8 0;
#X connect 10 0 4 0;
#X connect 11 0 9 0;
#X connect 11 1 10 0;
#X connect 12 0 13 0;
#X connect 13 0 14 0;
#X connect 13 1 16 0;
#X connect 14 0 15 0;
#X connect 15 0 9 1;
#X connect 16 0 10 1;
#X connect 17 0 11 0;
#X connect 18 0 19 0;
#X connect 19 0 17 0;
#X connect 19 1 2 0;
#X restore 30 142 pd quantize;
#N canvas 920 550 450 382.062 quantize 0;
#X floatatom 200 130 5 0 0 0 - - -, f 5;
#X obj 200 20 r npulses;
#X obj 200 105 - 1;
#X obj 200 154 t f f;
#X obj 90 150 * 16;
#X obj 90 175 int;
#X obj 90 200 / 16;
#X obj 20 20 inlet;
#X obj 90 225 outlet;
#X obj 20 120 spigot 1;
#X obj 90 120 spigot;
#X obj 20 75 t f f;
#X obj 100 20 r quantize;
#X obj 100 45 t f f;
#X obj 100 70 == 0;
#X obj 100 95 tgl 15 0 empty empty empty 17 7 0 10 #fcfcfc #000000
#000000 0 1;
#X obj 140 95 tgl 15 0 empty empty empty 17 7 0 10 #fcfcfc #000000
#000000 0 1;
#X obj 20 45 f;
#X obj 200 45 change;
#X obj 200 70 t b f;
#X connect 0 0 3 0;
#X connect 1 0 18 0;
#X connect 2 0 0 0;
#X connect 3 0 4 1;
#X connect 3 1 6 1;
#X connect 4 0 5 0;
#X connect 5 0 6 0;
#X connect 6 0 8 0;
#X connect 7 0 17 0;
#X connect 9 0 8 0;
#X connect 10 0 4 0;
#X connect 11 0 9 0;
#X connect 11 1 10 0;
#X connect 12 0 13 0;
#X connect 13 0 14 0;
#X connect 13 1 16 0;
#X connect 14 0 15 0;
#X connect 15 0 9 1;
#X connect 16 0 10 1;
#X connect 17 0 11 0;
#X connect 18 0 19 0;
#X connect 19 0 17 0;
#X connect 19 1 2 0;
#X restore 141 142 pd quantize;
#X obj 141 163 s range-to;
#X obj 169 50 loadbang;
#X msg 169 75 1;
#X obj 20 265 s play;
#X obj 90 265 s rec;
#X obj 20 190 ctlin 60;
#X obj 20 215 != 0;
#X msg 20 240 int \$1;
#X obj 90 215 != 0;
#X obj 90 190 ctlin 62;
#X obj 30 50 ctlin 20;
#X obj 100 50 ctlin 21;
#X obj 170 190 ctlin 26;
#X obj 170 215 moses 1;
#X obj 170 265 moses 1;
#X obj 170 240 ctlin 27;
#X obj 260 100 moses 0;
#X obj 299 125 moses 1;
#X obj 260 125 bng 15 250 50 0 empty empty empty 17 7 0 10 #fcfcfc
#000000 #000000;
#X obj 299 150 bng 15 250 50 0 empty empty empty 17 7 0 10 #fcfcfc
#000000 #000000;
#X obj 338 130 bng 15 250 50 0 empty empty empty 17 7 0 10 #fcfcfc
#000000 #000000;
#X msg 338 153 2;
#X msg 299 173 1;
#X msg 260 173 3;
#X obj 260 198 change;
#X floatatom 260 223 5 0 0 0 - - -, f 5;
#X obj 260 247 t b f;
#X obj 260 272 s reset;
#X obj 310 272 s div;
#X obj 260 50 bendin 0 1;
#X obj 260 75 - 8192;
#X text 30 10 F1 = CC 20 \, F2 = CC21 \, A = CC 26 \, B = CC27;
#X text 30 30 Use A and B for duplets and triplets;
#X connect 0 0 3 0;
#X connect 1 0 4 0;
#X connect 3 0 2 0;
#X connect 4 0 5 0;
#X connect 6 0 7 0;
#X connect 7 0 4 0;
#X connect 10 0 11 0;
#X connect 11 0 12 0;
#X connect 12 0 8 0;
#X connect 13 0 9 0;
#X connect 14 0 13 0;
#X connect 15 0 0 0;
#X connect 16 0 1 0;
#X connect 17 0 18 0;
#X connect 18 0 24 0;
#X connect 18 1 25 0;
#X connect 19 0 24 0;
#X connect 19 1 23 0;
#X connect 20 0 19 0;
#X connect 21 0 23 0;
#X connect 21 1 22 0;
#X connect 22 0 24 0;
#X connect 22 1 25 0;
#X connect 23 0 28 0;
#X connect 24 0 27 0;
#X connect 25 0 26 0;
#X connect 26 0 29 0;
#X connect 27 0 29 0;
#X connect 28 0 29 0;
#X connect 29 0 30 0;
#X connect 30 0 31 0;
#X connect 31 0 32 0;
#X connect 31 1 33 0;
#X connect 34 0 35 0;
#X connect 35 0 21 0;
