#N canvas 1063 349 403 321 10;
#X obj 80 81 / 127;
#X obj 151 81 / 127;
#X obj 80 173 s range-from;
#N canvas 920 549 450 382.062 quantize 0;
#X floatatom 200 130 5 0 0 0 - - -, f 5;
#X obj 200 20 r npulses;
#X obj 200 105 - 1;
#X obj 200 154 t f f;
#X obj 90 150 * 16;
#X obj 90 175 int;
#X obj 90 200 / 16;
#X obj 20 20 inlet;
#X obj 90 225 outlet;
#X obj 20 120 spigot 1;
#X obj 90 120 spigot;
#X obj 20 75 t f f;
#X obj 100 20 r quantize;
#X obj 100 45 t f f;
#X obj 100 70 == 0;
#X obj 100 95 tgl 15 0 empty empty empty 17 7 0 10 #fcfcfc #000000
#000000 0 1;
#X obj 140 95 tgl 15 0 empty empty empty 17 7 0 10 #fcfcfc #000000
#000000 0 1;
#X obj 20 45 f;
#X obj 200 45 change;
#X obj 200 70 t b f;
#X connect 0 0 3 0;
#X connect 1 0 18 0;
#X connect 2 0 0 0;
#X connect 3 0 4 1;
#X connect 3 1 6 1;
#X connect 4 0 5 0;
#X connect 5 0 6 0;
#X connect 6 0 8 0;
#X connect 7 0 17 0;
#X connect 9 0 8 0;
#X connect 10 0 4 0;
#X connect 11 0 9 0;
#X connect 11 1 10 0;
#X connect 12 0 13 0;
#X connect 13 0 14 0;
#X connect 13 1 16 0;
#X connect 14 0 15 0;
#X connect 15 0 9 1;
#X connect 16 0 10 1;
#X connect 17 0 11 0;
#X connect 18 0 19 0;
#X connect 19 0 17 0;
#X connect 19 1 2 0;
#X restore 80 152 pd quantize;
#N canvas 920 550 450 382.062 quantize 0;
#X floatatom 200 130 5 0 0 0 - - -, f 5;
#X obj 200 20 r npulses;
#X obj 200 105 - 1;
#X obj 200 154 t f f;
#X obj 90 150 * 16;
#X obj 90 175 int;
#X obj 90 200 / 16;
#X obj 20 20 inlet;
#X obj 90 225 outlet;
#X obj 20 120 spigot 1;
#X obj 90 120 spigot;
#X obj 20 75 t f f;
#X obj 100 20 r quantize;
#X obj 100 45 t f f;
#X obj 100 70 == 0;
#X obj 100 95 tgl 15 0 empty empty empty 17 7 0 10 #fcfcfc #000000
#000000 0 1;
#X obj 140 95 tgl 15 0 empty empty empty 17 7 0 10 #fcfcfc #000000
#000000 0 1;
#X obj 20 45 f;
#X obj 200 45 change;
#X obj 200 70 t b f;
#X connect 0 0 3 0;
#X connect 1 0 18 0;
#X connect 2 0 0 0;
#X connect 3 0 4 1;
#X connect 3 1 6 1;
#X connect 4 0 5 0;
#X connect 5 0 6 0;
#X connect 6 0 8 0;
#X connect 7 0 17 0;
#X connect 9 0 8 0;
#X connect 10 0 4 0;
#X connect 11 0 9 0;
#X connect 11 1 10 0;
#X connect 12 0 13 0;
#X connect 13 0 14 0;
#X connect 13 1 16 0;
#X connect 14 0 15 0;
#X connect 15 0 9 1;
#X connect 16 0 10 1;
#X connect 17 0 11 0;
#X connect 18 0 19 0;
#X connect 19 0 17 0;
#X connect 19 1 2 0;
#X restore 192 152 pd quantize;
#X obj 192 173 s range-to;
#X obj 220 60 loadbang;
#X msg 220 85 1;
#X obj 50 200 ctlin 117;
#X obj 50 225 sel 0;
#X obj 77 275 s play;
#X msg 77 250 int 0;
#X obj 130 225 sel 0;
#X obj 157 275 s play;
#X obj 130 200 ctlin 118;
#X msg 157 250 int 1;
#X obj 200 225 sel 0;
#X obj 200 200 ctlin 119;
#X obj 227 250 t b;
#X obj 227 275 s rec;
#X text 210 10 Also works with the Akai mini \, minus the transport
controls, f 31;
#X obj 290 110 moses 0;
#X obj 329 135 moses 1;
#X obj 290 135 bng 15 250 50 0 empty empty empty 17 7 0 10 #fcfcfc
#000000 #000000;
#X obj 329 160 bng 15 250 50 0 empty empty empty 17 7 0 10 #fcfcfc
#000000 #000000;
#X obj 368 160 bng 15 250 50 0 empty empty empty 17 7 0 10 #fcfcfc
#000000 #000000;
#X msg 368 183 2;
#X msg 329 183 1;
#X msg 290 183 3;
#X obj 290 208 change;
#X floatatom 290 233 5 0 0 0 - - -, f 5;
#X obj 290 257 t b f;
#X obj 290 282 s reset;
#X obj 340 282 s div;
#X obj 290 60 bendin 0 1;
#X obj 290 85 - 8192;
#X obj 80 60 ctlin 72;
#X obj 151 60 ctlin 73;
#X obj 20 81 > 0;
#X obj 20 106 s layer-r;
#X obj 20 60 ctlin 71;
#X text 20 10 K2 = CC71 \, K3 = CC72 \, K4 = CC73;
#X connect 0 0 3 0;
#X connect 1 0 4 0;
#X connect 3 0 2 0;
#X connect 4 0 5 0;
#X connect 6 0 7 0;
#X connect 7 0 4 0;
#X connect 8 0 9 0;
#X connect 9 1 11 0;
#X connect 11 0 10 0;
#X connect 12 1 15 0;
#X connect 14 0 12 0;
#X connect 15 0 13 0;
#X connect 16 1 18 0;
#X connect 17 0 16 0;
#X connect 18 0 19 0;
#X connect 21 0 23 0;
#X connect 21 1 22 0;
#X connect 22 0 24 0;
#X connect 22 1 25 0;
#X connect 23 0 28 0;
#X connect 24 0 27 0;
#X connect 25 0 26 0;
#X connect 26 0 29 0;
#X connect 27 0 29 0;
#X connect 28 0 29 0;
#X connect 29 0 30 0;
#X connect 30 0 31 0;
#X connect 31 0 32 0;
#X connect 31 1 33 0;
#X connect 34 0 35 0;
#X connect 35 0 21 0;
#X connect 36 0 0 0;
#X connect 37 0 1 0;
#X connect 38 0 39 0;
#X connect 40 0 38 0;
