#N canvas 719 413 769 321 10;
#X obj 290 71 / 127;
#X obj 360 71 / 127;
#X obj 290 163 s range-from;
#N canvas 920 549 450 382.062 quantize 0;
#X floatatom 200 130 5 0 0 0 - - -, f 5;
#X obj 200 20 r npulses;
#X obj 200 105 - 1;
#X obj 200 154 t f f;
#X obj 90 150 * 16;
#X obj 90 175 int;
#X obj 90 200 / 16;
#X obj 20 20 inlet;
#X obj 90 225 outlet;
#X obj 20 120 spigot 1;
#X obj 90 120 spigot;
#X obj 20 75 t f f;
#X obj 100 20 r quantize;
#X obj 100 45 t f f;
#X obj 100 70 == 0;
#X obj 100 95 tgl 15 0 empty empty empty 17 7 0 10 #fcfcfc #000000
#000000 0 1;
#X obj 140 95 tgl 15 0 empty empty empty 17 7 0 10 #fcfcfc #000000
#000000 0 1;
#X obj 20 45 f;
#X obj 200 45 change;
#X obj 200 70 t b f;
#X connect 0 0 3 0;
#X connect 1 0 18 0;
#X connect 2 0 0 0;
#X connect 3 0 4 1;
#X connect 3 1 6 1;
#X connect 4 0 5 0;
#X connect 5 0 6 0;
#X connect 6 0 8 0;
#X connect 7 0 17 0;
#X connect 9 0 8 0;
#X connect 10 0 4 0;
#X connect 11 0 9 0;
#X connect 11 1 10 0;
#X connect 12 0 13 0;
#X connect 13 0 14 0;
#X connect 13 1 16 0;
#X connect 14 0 15 0;
#X connect 15 0 9 1;
#X connect 16 0 10 1;
#X connect 17 0 11 0;
#X connect 18 0 19 0;
#X connect 19 0 17 0;
#X connect 19 1 2 0;
#X restore 290 142 pd quantize;
#N canvas 920 550 450 382.062 quantize 0;
#X floatatom 200 130 5 0 0 0 - - -, f 5;
#X obj 200 20 r npulses;
#X obj 200 105 - 1;
#X obj 200 154 t f f;
#X obj 90 150 * 16;
#X obj 90 175 int;
#X obj 90 200 / 16;
#X obj 20 20 inlet;
#X obj 90 225 outlet;
#X obj 20 120 spigot 1;
#X obj 90 120 spigot;
#X obj 20 75 t f f;
#X obj 100 20 r quantize;
#X obj 100 45 t f f;
#X obj 100 70 == 0;
#X obj 100 95 tgl 15 0 empty empty empty 17 7 0 10 #fcfcfc #000000
#000000 0 1;
#X obj 140 95 tgl 15 0 empty empty empty 17 7 0 10 #fcfcfc #000000
#000000 0 1;
#X obj 20 45 f;
#X obj 200 45 change;
#X obj 200 70 t b f;
#X connect 0 0 3 0;
#X connect 1 0 18 0;
#X connect 2 0 0 0;
#X connect 3 0 4 1;
#X connect 3 1 6 1;
#X connect 4 0 5 0;
#X connect 5 0 6 0;
#X connect 6 0 8 0;
#X connect 7 0 17 0;
#X connect 9 0 8 0;
#X connect 10 0 4 0;
#X connect 11 0 9 0;
#X connect 11 1 10 0;
#X connect 12 0 13 0;
#X connect 13 0 14 0;
#X connect 13 1 16 0;
#X connect 14 0 15 0;
#X connect 15 0 9 1;
#X connect 16 0 10 1;
#X connect 17 0 11 0;
#X connect 18 0 19 0;
#X connect 19 0 17 0;
#X connect 19 1 2 0;
#X restore 401 142 pd quantize;
#X obj 401 163 s range-to;
#X obj 429 50 loadbang;
#X msg 429 75 1;
#X obj 280 265 s play;
#X obj 350 265 s rec;
#X obj 280 190 ctlin 60;
#X obj 280 215 != 0;
#X msg 280 240 int \$1;
#X obj 350 215 != 0;
#X obj 350 190 ctlin 62;
#X obj 290 50 ctlin 20;
#X obj 360 50 ctlin 21;
#X obj 430 190 ctlin 26;
#X obj 430 215 moses 1;
#X obj 430 265 moses 1;
#X obj 430 240 ctlin 27;
#X obj 520 100 moses 0;
#X obj 559 125 moses 1;
#X obj 520 125 bng 15 250 50 0 empty empty empty 17 7 0 10 #fcfcfc
#000000 #000000;
#X obj 559 150 bng 15 250 50 0 empty empty empty 17 7 0 10 #fcfcfc
#000000 #000000;
#X obj 598 130 bng 15 250 50 0 empty empty empty 17 7 0 10 #fcfcfc
#000000 #000000;
#X msg 598 153 2;
#X msg 559 173 1;
#X msg 520 173 3;
#X obj 520 198 change;
#X floatatom 520 223 5 0 0 0 - - -, f 5;
#X obj 520 247 t b f;
#X obj 520 272 s reset;
#X obj 570 272 s div;
#X obj 520 50 bendin 0 1;
#X obj 520 75 - 8192;
#X obj 20 190 ctlin 117;
#X obj 20 215 sel 0;
#X obj 47 265 s play;
#X msg 47 240 int 0;
#X obj 100 215 sel 0;
#X obj 127 265 s play;
#X obj 100 190 ctlin 118;
#X msg 127 240 int 1;
#X obj 170 215 sel 0;
#X obj 170 190 ctlin 119;
#X obj 197 240 t b;
#X obj 197 265 s rec;
#X text 290 30 Use A and B for duplets and triplets;
#X obj 20 80 ctlin 3;
#X obj 91 80 ctlin 4;
#X obj 640 100 keyname;
#X obj 640 125 pack f s;
#X obj 640 150 route 1;
#X obj 640 200 sel F1 F2;
#X obj 640 260 s play;
#X obj 690 260 s rec;
#X text 640 30 keyboard controls: F1 - play \; F2 - rec, f 18;
#X obj 640 175 symbol;
#X msg 640 225 int bang;
#X obj 230 75 > 0;
#X obj 230 100 s layer-r;
#X obj 230 50 ctlin 9;
#X text 290 10 F1 = CC 20 \, F2 = CC21 \, K2 = CC9 \, A = CC 26 \,
B = CC27;
#X text 22 12 K2 = CC71 \, K3 = CC72 \, K4 = CC73;
#X text 22 122 K2 = CC2 \, K3 = CC3 \, K4 = CC4;
#X obj 161 50 ctlin 71;
#X obj 20 50 ctlin 72;
#X obj 91 50 ctlin 73;
#X obj 161 80 ctlin 2;
#X connect 0 0 3 0;
#X connect 1 0 4 0;
#X connect 3 0 2 0;
#X connect 4 0 5 0;
#X connect 6 0 7 0;
#X connect 7 0 4 0;
#X connect 10 0 11 0;
#X connect 11 0 12 0;
#X connect 12 0 8 0;
#X connect 13 0 9 0;
#X connect 14 0 13 0;
#X connect 15 0 0 0;
#X connect 16 0 1 0;
#X connect 17 0 18 0;
#X connect 18 0 24 0;
#X connect 18 1 25 0;
#X connect 19 0 24 0;
#X connect 19 1 23 0;
#X connect 20 0 19 0;
#X connect 21 0 23 0;
#X connect 21 1 22 0;
#X connect 22 0 24 0;
#X connect 22 1 25 0;
#X connect 23 0 28 0;
#X connect 24 0 27 0;
#X connect 25 0 26 0;
#X connect 26 0 29 0;
#X connect 27 0 29 0;
#X connect 28 0 29 0;
#X connect 29 0 30 0;
#X connect 30 0 31 0;
#X connect 31 0 32 0;
#X connect 31 1 33 0;
#X connect 34 0 35 0;
#X connect 35 0 21 0;
#X connect 36 0 37 0;
#X connect 37 1 39 0;
#X connect 39 0 38 0;
#X connect 40 1 43 0;
#X connect 42 0 40 0;
#X connect 43 0 41 0;
#X connect 44 1 46 0;
#X connect 45 0 44 0;
#X connect 46 0 47 0;
#X connect 49 0 0 0;
#X connect 50 0 1 0;
#X connect 51 0 52 0;
#X connect 51 1 52 1;
#X connect 52 0 53 0;
#X connect 53 0 58 0;
#X connect 54 0 59 0;
#X connect 54 1 56 0;
#X connect 58 0 54 0;
#X connect 59 0 55 0;
#X connect 60 0 61 0;
#X connect 62 0 60 0;
#X connect 66 0 60 0;
#X connect 67 0 0 0;
#X connect 68 0 1 0;
#X connect 69 0 60 0;
