#N canvas 745 301 665 481 10;
#X obj 338 6 inlet;
#X obj 338 29 t f f;
#X floatatom 365 82 5 0 0 0 - - -, f 5;
#X obj 365 57 expr $f1*(120-$f2)+$f2;
#X obj 400 300 pack f f;
#X obj 400 343 noteout 10;
#X obj 400 323 makenote 1 125;
#X obj 481 301 r dur;
#X obj 494 6 inlet;
#X obj 65 149 bng 15 250 50 0 empty empty def 17 7 0 10 #fcfcfc #000000
#000000;
#X obj 226 180 ctlout 7 10;
#X obj 456 158 outlet;
#X floatatom 540 50 5 0 0 0 - - -, f 5;
#X obj 540 74 * 16;
#X obj 540 99 int;
#X obj 540 124 min 15;
#X floatatom 540 149 5 0 0 0 - - -, f 5;
#X obj 65 104 bng 15 250 50 0 empty empty empty 17 7 0 10 #fcfcfc #000000
#000000;
#X obj 85 104 bng 15 250 50 0 empty empty empty 17 7 0 10 #fcfcfc #000000
#000000;
#X obj 105 104 bng 15 250 50 0 empty empty empty 17 7 0 10 #fcfcfc
#000000 #000000;
#X obj 125 104 bng 15 250 50 0 empty empty empty 17 7 0 10 #fcfcfc
#000000 #000000;
#X obj 145 104 bng 15 250 50 0 empty empty empty 17 7 0 10 #fcfcfc
#000000 #000000;
#X obj 165 104 bng 15 250 50 0 empty empty empty 17 7 0 10 #fcfcfc
#000000 #000000;
#X obj 185 104 bng 15 250 50 0 empty empty empty 17 7 0 10 #fcfcfc
#000000 #000000;
#X obj 205 104 bng 15 250 50 0 empty empty empty 17 7 0 10 #fcfcfc
#000000 #000000;
#X obj 65 124 bng 15 250 50 0 empty empty empty 17 7 0 10 #fcfcfc #000000
#000000;
#X obj 85 124 bng 15 250 50 0 empty empty empty 17 7 0 10 #fcfcfc #000000
#000000;
#X obj 105 124 bng 15 250 50 0 empty empty empty 17 7 0 10 #fcfcfc
#000000 #000000;
#X obj 125 124 bng 15 250 50 0 empty empty empty 17 7 0 10 #fcfcfc
#000000 #000000;
#X obj 145 124 bng 15 250 50 0 empty empty empty 17 7 0 10 #fcfcfc
#000000 #000000;
#X obj 165 124 bng 15 250 50 0 empty empty empty 17 7 0 10 #fcfcfc
#000000 #000000;
#X obj 185 124 bng 15 250 50 0 empty empty empty 17 7 0 10 #fcfcfc
#000000 #000000;
#X obj 205 124 bng 15 250 50 0 empty empty empty 17 7 0 10 #029c2f
#000000 #000000;
#X obj 30 20 sel 0 1 2 3 4 5 6 7 8 9 10 11 12 13 14 15;
#N canvas 482 472 450 466 transport 0;
#X obj 40 340 int;
#X floatatom 40 365 5 0 0 0 - - -, f 5;
#X obj 40 389 sel 0;
#X obj 170 297 tabwrite pattern;
#X msg 40 217 \$1;
#X msg 110 217 \$2;
#X obj 170 272 t f f;
#X obj 280 297 tabwrite pattern;
#X msg 280 217 \$2;
#X obj 280 272 t f f;
#X msg 170 217 0;
#X obj 40 105 t a a a a;
#X obj 110 187 spigot;
#X obj 160 187 spigot;
#X obj 210 187 spigot;
#X obj 40 187 spigot 1;
#X obj 80 167 tgl 15 0 empty empty empty 17 7 0 10 #fcfcfc #000000
#000000 1 1;
#X obj 140 167 tgl 15 0 empty empty empty 17 7 0 10 #fcfcfc #000000
#000000 0 1;
#X obj 190 167 tgl 15 0 empty empty empty 17 7 0 10 #fcfcfc #000000
#000000 0 1;
#X obj 240 167 tgl 15 0 empty empty empty 17 7 0 10 #fcfcfc #000000
#000000 0 1;
#X obj 240 137 == 3;
#X obj 80 137 == 0;
#X obj 140 137 == 1;
#X obj 190 137 == 2;
#X obj 40 80 pack f f;
#X obj 13 26 inlet;
#X obj 63 26 inlet;
#X obj 40 414 outlet;
#X obj 140 26 inlet;
#X obj 304 26 r erase;
#X obj 140 101 t f f f f;
#X obj 13 51 t f f f;
#X obj 304 51 t b f;
#X floatatom 300 110 5 0 0 0 - - -, f 5;
#X obj 140 77 expr if($f1 != 2 || $f2 \, $f1 \, 0);
#X obj 40 275 tabread pattern;
#X connect 0 0 1 0;
#X connect 1 0 2 0;
#X connect 2 1 27 0;
#X connect 4 0 35 0;
#X connect 5 0 0 0;
#X connect 6 0 0 0;
#X connect 6 1 3 0;
#X connect 8 0 9 0;
#X connect 9 0 0 0;
#X connect 9 1 7 0;
#X connect 10 0 6 0;
#X connect 11 0 15 0;
#X connect 11 1 12 0;
#X connect 11 2 13 0;
#X connect 11 3 14 0;
#X connect 12 0 5 0;
#X connect 13 0 10 0;
#X connect 14 0 8 0;
#X connect 15 0 4 0;
#X connect 16 0 15 1;
#X connect 17 0 12 1;
#X connect 18 0 13 1;
#X connect 19 0 14 1;
#X connect 20 0 19 0;
#X connect 21 0 16 0;
#X connect 22 0 17 0;
#X connect 23 0 18 0;
#X connect 24 0 11 0;
#X connect 25 0 31 0;
#X connect 26 0 24 1;
#X connect 28 0 34 0;
#X connect 29 0 32 0;
#X connect 30 0 21 0;
#X connect 30 1 22 0;
#X connect 30 2 23 0;
#X connect 30 3 20 0;
#X connect 31 0 24 0;
#X connect 31 1 3 1;
#X connect 31 2 7 1;
#X connect 32 0 34 0;
#X connect 32 1 34 1;
#X connect 34 0 30 0;
#X connect 34 0 33 0;
#X connect 35 0 0 0;
#X restore 567 260 pd transport;
#X obj 540 173 t f f;
#X obj 145 149 bng 15 250 50 0 empty empty rnd 17 7 0 10 #fcfcfc #000000
#000000;
#X obj 400 407 tgl 15 1 empty empty empty 17 7 0 10 #fcfcfc #000000
#000000 1 1;
#X msg 400 430 \; pd dsp \$1;
#X floatatom 567 290 5 0 0 0 - - -, f 5;
#X obj 30 290 noise~;
#X obj 185 85 tgl 15 0 rec rec rec 17 7 0 10 #fc0505 #000000 #000000
0 1;
#X obj 270 150 ctlin 7;
#X obj 132 85 tgl 15 1 erase empty erase 17 7 0 10 #fcfcfc #000000
#000000 0 1;
#X obj 226 98 vsl 15 64 0 127 0 0 empty empty empty 0 -9 0 10 #fcfcfc
#000000 #000000 4961 1;
#X obj 105 149 bng 15 250 50 0 empty empty clr 17 7 0 10 #fcfcfc #000000
#000000;
#X msg 30 210 \; pattern 0 44 44 44 44 44 40 40 40 40 40 36 36 36 36
36 36;
#X msg 30 250 \; pattern 0 0 0 0 0 0 0 0 0 0 0 0 0 0 0 0 0;
#X obj 30 350 tabwrite~ pattern;
#X obj 30 320 expr~ int(($v1+1)*8+36);
#X floatatom 205 149 2 0 0 0 ch - -, f 2;
#N canvas 1395 457 450 300 midi 0;
#X floatatom 180 45 5 0 0 0 - - -, f 5;
#X floatatom 120 215 5 0 0 0 - - -, f 5;
#X obj 180 142 t b f;
#X obj 120 190 |;
#X obj 180 20 ctlin 64;
#X obj 180 69 > 0;
#X obj 20 270 outlet;
#X obj 120 270 outlet;
#X obj 270 20 r rec;
#X obj 270 45 change;
#X obj 270 70 * 2;
#X obj 180 94 s rec;
#X obj 70 20 notein;
#X obj 70 45 pack f f;
#X obj 70 70 arp;
#X obj 120 100 > 0;
#X obj 120 124 tgl 15 0 empty empty empty 17 7 0 10 #fcfcfc #000000
#000000 0 1;
#X obj 20 20 inlet;
#X obj 20 45 t f b;
#X obj 70 270 outlet;
#X connect 0 0 5 0;
#X connect 1 0 7 0;
#X connect 2 0 3 0;
#X connect 2 1 3 1;
#X connect 3 0 1 0;
#X connect 4 0 0 0;
#X connect 5 0 11 0;
#X connect 8 0 9 0;
#X connect 9 0 10 0;
#X connect 10 0 2 0;
#X connect 12 0 13 0;
#X connect 12 1 13 1;
#X connect 13 0 14 0;
#X connect 14 0 19 0;
#X connect 14 1 15 0;
#X connect 15 0 16 0;
#X connect 16 0 3 0;
#X connect 17 0 18 0;
#X connect 18 0 6 0;
#X connect 18 1 14 0;
#X restore 567 210 pd midi;
#X floatatom 330 180 5 0 0 0 - - -, f 5;
#X obj 280 60 bng 15 250 50 0 empty empty empty 17 7 0 10 #fcfcfc #000000
#000000;
#X msg 65 179 100;
#X obj 270 110 loadbang;
#X msg 160 179 10;
#X msg 440 20 60;
#X obj 220 335 unpack f f f f f;
#X obj 220 310 r init-recall;
#N canvas 794 442 450 300 store 0;
#X obj 30 100 s ch-store;
#X obj 30 20 inlet;
#X obj 30 45 spigot;
#X obj 140 20 loadbang;
#X obj 140 45 del 250;
#X msg 140 70 1;
#X connect 1 0 2 0;
#X connect 2 0 0 0;
#X connect 3 0 4 0;
#X connect 4 0 5 0;
#X connect 5 0 2 1;
#X restore 429 268 pd store;
#X connect 0 0 1 0;
#X connect 1 0 12 0;
#X connect 1 1 3 0;
#X connect 2 0 4 1;
#X connect 2 0 11 0;
#X connect 3 0 2 0;
#X connect 4 0 6 0;
#X connect 6 0 5 0;
#X connect 6 1 5 1;
#X connect 7 0 6 2;
#X connect 8 0 3 1;
#X connect 9 0 54 0;
#X connect 9 0 46 0;
#X connect 9 0 56 0;
#X connect 9 0 57 0;
#X connect 12 0 13 0;
#X connect 13 0 14 0;
#X connect 14 0 15 0;
#X connect 15 0 16 0;
#X connect 16 0 35 0;
#X connect 33 0 17 0;
#X connect 33 1 18 0;
#X connect 33 2 19 0;
#X connect 33 3 20 0;
#X connect 33 4 21 0;
#X connect 33 5 22 0;
#X connect 33 6 23 0;
#X connect 33 7 24 0;
#X connect 33 8 25 0;
#X connect 33 9 26 0;
#X connect 33 10 27 0;
#X connect 33 11 28 0;
#X connect 33 12 29 0;
#X connect 33 13 30 0;
#X connect 33 14 31 0;
#X connect 33 15 32 0;
#X connect 34 0 4 0;
#X connect 34 0 39 0;
#X connect 35 0 33 0;
#X connect 35 1 51 0;
#X connect 36 0 48 0;
#X connect 37 0 38 0;
#X connect 40 0 49 0;
#X connect 42 0 44 0;
#X connect 44 0 10 0;
#X connect 44 0 52 0;
#X connect 45 0 47 0;
#X connect 49 0 48 0;
#X connect 50 0 5 2;
#X connect 50 0 60 0;
#X connect 51 0 34 0;
#X connect 51 1 34 1;
#X connect 51 2 34 2;
#X connect 53 0 44 0;
#X connect 54 0 44 0;
#X connect 55 0 54 0;
#X connect 55 0 56 0;
#X connect 56 0 50 0;
#X connect 57 0 3 1;
#X connect 58 4 50 0;
#X connect 59 0 58 0;
#X coords 0 -1 1 1 183 86 1 61 84;
