#N canvas 923 523 450 300 10;
#X obj 60 26 bng 15 250 50 0 empty empty empty 17 7 0 10 #fcfcfc #000000
#000000;
#X obj 60 71 tgl 15 0 empty empty empty 17 7 0 10 #fcfcfc #000000 #000000
0 1;
#X obj 111 17 loadbang;
#X msg 189 17 load;
#X msg 231 17 save;
#X obj 60 46 presetman \$1;
#X obj 197 86 bng 15 250 50 0 empty empty load -30 6 0 10 #fcfcfc #202020
#202020;
#X obj 214 86 bng 15 250 50 0 empty empty save 17 7 0 10 #fcfcfc #202020
#202020;
#X obj 60 92 sel 0 1;
#X msg 60 117 0 0;
#X obj 60 141 unpack f f;
#X msg 60 166 color \$1 12 12;
#X msg 163 166 color \$1 12 12;
#X msg 94 117 6 3;
#X text 60 189 6 = green indicates that preset is present and ready
to be loaded \; 3 = red indicates that existing preset would be overwritten
, f 35;
#X obj 300 40 pgmin;
#X obj 300 65 sel \$1;
#X connect 0 0 5 0;
#X connect 1 0 8 0;
#X connect 2 0 5 0;
#X connect 3 0 5 0;
#X connect 4 0 5 0;
#X connect 5 0 1 0;
#X connect 6 0 3 0;
#X connect 7 0 4 0;
#X connect 8 0 9 0;
#X connect 8 1 13 0;
#X connect 9 0 10 0;
#X connect 10 0 11 0;
#X connect 10 1 12 0;
#X connect 11 0 6 0;
#X connect 12 0 7 0;
#X connect 13 0 10 0;
#X connect 15 0 16 0;
#X connect 16 0 6 0;
#X coords 0 -1 1 1 95 42 1 166 66;
