#N canvas 140 364 450 452.094 10;
#X obj 28 25 inlet;
#X obj 67 25 inlet;
#X obj 123 25 inlet;
#X obj 28 47 moses 0;
#X obj 67 69 swap 1;
#X obj 67 91 -;
#X obj 123 47 swap 1;
#X obj 123 69 -;
#X obj 67 113 moses 0;
#X obj 106 135 swap 1;
#X obj 106 157 -;
#X obj 106 179 outlet;
#X connect 0 0 3 0;
#X connect 1 0 3 1;
#X connect 2 0 6 0;
#X connect 3 1 4 0;
#X connect 4 0 5 0;
#X connect 4 1 5 1;
#X connect 5 0 8 0;
#X connect 6 0 7 0;
#X connect 6 1 7 1;
#X connect 7 0 8 1;
#X connect 8 1 9 0;
#X connect 9 0 10 0;
#X connect 9 1 10 1;
#X connect 10 0 11 0;
