#N canvas 140 367 450 532.094 10;
#X obj 20 10 inlet;
#X obj 100 10 inlet;
#X obj 156 10 inlet;
#X obj 35 60 moses 0;
#X obj 100 79 swap 1;
#X obj 100 101 -;
#X obj 156 57 swap 1;
#X obj 156 79 -;
#X obj 100 123 moses 0;
#X obj 100 280 outlet;
#X obj 20 145 f;
#X obj 20 180 pack f f f;
#X msg 35 100 0;
#X obj 139 145 t b;
#X msg 139 170 1;
#X msg 20 205 \$1 \$3 \$2;
#X obj 20 230 route 0 1;
#X msg 100 230 \$2;
#X obj 20 255 route 0 1;
#X obj 20 280 bng 15 250 50 0 empty empty empty 17 7 0 10 #fcfcfc #000000
#000000;
#X obj 143 210 t f b;
#X msg 170 240 1;
#X obj 20 35 t b f f b b;
#X msg 200 240 0;
#X obj 170 265 value skip;
#X obj 77 145 r layer;
#X connect 0 0 22 0;
#X connect 1 0 3 1;
#X connect 2 0 6 0;
#X connect 3 1 4 0;
#X connect 4 0 5 0;
#X connect 4 1 5 1;
#X connect 5 0 8 0;
#X connect 6 0 7 0;
#X connect 6 1 7 1;
#X connect 7 0 8 1;
#X connect 8 1 13 0;
#X connect 10 0 11 0;
#X connect 11 0 15 0;
#X connect 12 0 10 1;
#X connect 13 0 14 0;
#X connect 14 0 10 1;
#X connect 15 0 16 0;
#X connect 16 0 18 0;
#X connect 16 1 17 0;
#X connect 17 0 9 0;
#X connect 18 0 19 0;
#X connect 18 1 20 0;
#X connect 20 0 9 0;
#X connect 20 1 21 0;
#X connect 21 0 24 0;
#X connect 22 0 10 0;
#X connect 22 1 3 0;
#X connect 22 2 11 1;
#X connect 22 3 12 0;
#X connect 22 4 23 0;
#X connect 23 0 24 0;
#X connect 25 0 11 2;
