#N canvas 488 315 732 378 10;
#N canvas 0 50 450 300 (subpatch) 0;
#X array array1 33920 float 0 black black;
#X coords 0 0.2 33919 -0.2 100 70 1;
#X restore 22 37 graph;
#N canvas 0 50 450 300 (subpatch) 0;
#X array array2 50048 float 0 black black;
#X coords 0 0.5 50047 -0.5 100 70 1;
#X restore 23 137 graph;
#N canvas 0 50 450 300 (subpatch) 0;
#X array array3 52736 float 2 black black;
#X coords 0 1 52736 -1 100 70 1;
#X restore 24 236 graph;
#X obj 564 39 bng 15 250 50 0 empty empty empty 17 7 0 10 #fcfcfc #000000
#000000;
#X obj 564 103 soundfiler;
#X obj 564 59 openpanel;
#X msg 564 81 read -resize \$1 array1;
#X obj 562 134 bng 15 250 50 0 empty empty empty 17 7 0 10 #fcfcfc
#000000 #000000;
#X obj 562 198 soundfiler;
#X obj 562 154 openpanel;
#X msg 562 176 read -resize \$1 array2;
#X obj 561 236 bng 15 250 50 0 empty empty empty 17 7 0 10 #fcfcfc
#000000 #000000;
#X obj 561 300 soundfiler;
#X obj 561 256 openpanel;
#X msg 561 278 read -resize \$1 array3;
#X obj 370 39 inlet;
#X obj 296 116 moses 0.3;
#X obj 296 162 moses 0.6;
#X obj 383 116 tabplay~ array1;
#X obj 361 116 bng 15 250 50 0 empty empty empty 17 7 0 10 #fcfcfc
#000000 #000000;
#X obj 361 162 bng 15 250 50 0 empty empty empty 17 7 0 10 #fcfcfc
#000000 #000000;
#X obj 361 208 bng 15 250 50 0 empty empty empty 17 7 0 10 #fcfcfc
#000000 #000000;
#X obj 383 162 tabplay~ array2;
#X obj 383 207 tabplay~ array3;
#X obj 721 31 loadbang;
#X obj 156 116 hsl 128 15 0 1 0 1 empty empty empty -2 -8 0 10 #fcfcfc
#000000 #000000 3810 1;
#X obj 156 162 hsl 128 15 0 1 0 1 empty empty empty -2 -8 0 10 #fcfcfc
#000000 #000000 7620 1;
#X msg 156 94 0.3;
#X msg 156 140 0.6;
#X obj 370 62 t f f;
#X obj 383 136 *~;
#X obj 383 182 *~;
#X obj 383 228 *~;
#X obj 397 86 expr (1-$f1)*0.8+0.2;
#X obj 383 267 output~;
#X msg 721 80 read -resize drumkits/17-29_TicTacShutUp/hat.wav array1
, f 36;
#X msg 721 277 read -resize drumkits/17-29_TicTacShutUp/kick.wav array3
, f 36;
#X msg 721 175 read -resize drumkits/17-29_TicTacShutUp/snare.wav array2
, f 35;
#X connect 3 0 5 0;
#X connect 5 0 6 0;
#X connect 6 0 4 0;
#X connect 7 0 9 0;
#X connect 9 0 10 0;
#X connect 10 0 8 0;
#X connect 11 0 13 0;
#X connect 13 0 14 0;
#X connect 14 0 12 0;
#X connect 15 0 29 0;
#X connect 16 0 19 0;
#X connect 16 1 17 0;
#X connect 17 0 20 0;
#X connect 17 1 21 0;
#X connect 18 0 30 0;
#X connect 19 0 18 0;
#X connect 20 0 22 0;
#X connect 21 0 23 0;
#X connect 22 0 31 0;
#X connect 23 0 32 0;
#X connect 24 0 35 0;
#X connect 24 0 36 0;
#X connect 24 0 37 0;
#X connect 25 0 16 1;
#X connect 26 0 17 1;
#X connect 27 0 25 0;
#X connect 28 0 26 0;
#X connect 29 0 16 0;
#X connect 29 1 33 0;
#X connect 30 0 34 0;
#X connect 30 0 34 1;
#X connect 31 0 34 0;
#X connect 31 0 34 1;
#X connect 32 0 34 0;
#X connect 32 0 34 1;
#X connect 33 0 30 1;
#X connect 33 0 32 1;
#X connect 33 0 31 1;
#X connect 35 0 4 0;
#X connect 36 0 12 0;
#X connect 37 0 8 0;
#X coords 0 -1 1 1 102 64 1 379 250;
